<svg xmlns="http://www.w3.org/2000/svg" viewBox="0 0 48 48"><defs><style>.cls-1{fill:#7c7d7d;}.cls-2{fill:#747575;}.cls-3{fill:#dad7e5;}.cls-4{fill:#edebf2;}.cls-5{fill:#c6c3d8;}.cls-6{fill:#ffba55;}.cls-7{fill:#fc6;}</style></defs><title>The Bees</title><g id="The_Bees" data-name="The Bees"><path class="cls-1" d="M26,10V4a3,3,0,0,1,6,0V5a1,1,0,0,1-2,0V4a1,1,0,0,0-2,0v6A1,1,0,0,1,26,10Z"/><path class="cls-2" d="M20,10V4a1,1,0,0,0-2,0V5a1,1,0,0,1-2,0V4a3,3,0,0,1,6,0v6A1,1,0,0,1,20,10Z"/><path class="cls-2" d="M27,17H21a5,5,0,1,1,6,0Z"/><path class="cls-1" d="M28.57,15h-3.4a4.17,4.17,0,0,1-3.56-6.39A5,5,0,0,1,28.57,15Z"/><path class="cls-3" d="M24,17c-6.49,8.43-7.39,10.18-10.62,11.74s-7.53,2-10.33-.79C-1.11,23.79,1.46,17,7,17Z"/><path class="cls-4" d="M24,17c-5.71,7.43-8.12,12.05-14.34,12.88C3.92,28.83,2,21.44,6.35,18.2,8.6,16.51,9.48,17,24,17Z"/><path class="cls-1" d="M27.3,40.17l-.83,1.37c-4.25,7.28-.69,7.28-4.94,0l-.83-1.37A7,7,0,0,0,27.3,40.17Z"/><path class="cls-3" d="M24,17c-6.58,15.93-6.17,16.11-8.25,16.8a3.57,3.57,0,0,1-3.7-.85A4.06,4.06,0,0,1,11,29.62C16.21,28.3,17.81,25,24,17Z"/><path class="cls-5" d="M24,17c-2.7,6.54-1.7,4.73-4.39,8.24A12.22,12.22,0,0,1,11,30c0-.71-.14.05,2.38-1.21C16.69,27.14,17.65,25.26,24,17Z"/><polygon class="cls-6" points="28.53 28 19.47 28 24 17 28.53 28"/><path class="cls-2" d="M32.25,33.8c-.09.3,1.16.2-16.43.2a1.18,1.18,0,0,1-.07-.2c2-.67,2.32-2.4,3.72-5.8h9.06C30,31.56,30.27,33.15,32.25,33.8Z"/><path class="cls-4" d="M34.62,28.74C31.31,27.14,30.35,25.26,24,17c18.38,0,18.49-.38,20.6,1.2C50.48,22.53,45,33.92,34.62,28.74Z"/><path class="cls-3" d="M37,29.62A4,4,0,0,1,36,33a3.57,3.57,0,0,1-3.7.85c-2-.67-1.58-.63-8.25-16.8C30.33,25.23,31.88,28.32,37,29.62Z"/><path class="cls-5" d="M37,29.62V30a12.19,12.19,0,0,1-8.61-4.71C25.69,21.73,26.7,23.55,24,17,30.05,24.86,31.74,28.29,37,29.62Z"/><path class="cls-6" d="M32.18,34C29,43.29,19,43.36,15.82,34Z"/><path class="cls-2" d="M24,41a7.33,7.33,0,0,1-3.3-.83A30,30,0,0,1,24,47c.29-.87.63-1.73,1-2.57-1.76-4-1.88-1.6,1.47-2.89C28.17,38.81,27.28,41,24,41Z"/><path class="cls-7" d="M31.8,35a11.59,11.59,0,0,1-2.34,3.56C25.64,40,21.79,37.9,19.69,34h9.24A3.63,3.63,0,0,0,31.8,35Z"/><path class="cls-7" d="M26.12,28H19.47l3.33-8.07C24.63,24.36,23.87,22.53,26.12,28Z"/><path class="cls-1" d="M28.93,34H19.69a14.24,14.24,0,0,1-1.28-3.43L19.47,28h6.65C28.15,32.94,28.18,33.31,28.93,34Z"/></g></svg>