<svg width="15" height="15" viewBox="0 0 15 15" fill="none" xmlns="http://www.w3.org/2000/svg">
	<path d="M7.5 0C3.36 0 0 3.36 0 7.5C0 11.64 3.36 15 7.5 15C11.64 15 15 11.64 15 7.5C15 3.36 11.64 0 7.5 0ZM10.5 8.25H8.25V10.5C8.25 10.9125 7.9125 11.25 7.5 11.25C7.0875 11.25 6.75 10.9125 6.75 10.5V8.25H4.5C4.0875 8.25 3.75 7.9125 3.75 7.5C3.75 7.0875 4.0875 6.75 4.5 6.75H6.75V4.5C6.75 4.0875 7.0875 3.75 7.5 3.75C7.9125 3.75 8.25 4.0875 8.25 4.5V6.75H10.5C10.9125 6.75 11.25 7.0875 11.25 7.5C11.25 7.9125 10.9125 8.25 10.5 8.25Z" fill="black" />
</svg>
