<svg width="15" height="15" viewBox="0 0 15 15" fill="none" xmlns="http://www.w3.org/2000/svg">
	<path d="M14.6322 13.0328L12.3433 10.7377C13.1608 9.59015 13.5695 8.27868 13.5695 6.80327C13.5695 3.03278 10.545 0 6.78474 0C3.02452 0 0 3.03278 0 6.80327C0 10.5738 3.02452 13.6065 6.78474 13.6065C8.17439 13.6065 9.56403 13.1967 10.7084 12.377L12.9973 14.6721C13.2425 14.918 13.4877 15 13.8147 15C14.1417 15 14.3869 14.918 14.6322 14.6721C15.1226 14.1803 15.1226 13.4426 14.6322 13.0328ZM2.37055 6.80327C2.37055 4.34426 4.41415 2.29507 6.86647 2.29507C9.31879 2.29507 11.3624 4.34426 11.3624 6.80327C11.3624 8.03278 10.8719 9.09835 10.0545 9.99999C9.23707 10.8197 8.09263 11.3115 6.86647 11.3115C4.3324 11.2295 2.37055 9.26229 2.37055 6.80327Z" fill="#1A1A1A" />
</svg>
