<svg width="15" height="15" viewBox="0 0 15 15" fill="none" xmlns="http://www.w3.org/2000/svg">
	<path d="M7.5 15C8.98336 15 10.4334 14.5601 11.6668 13.736C12.9001 12.9119 13.8614 11.7406 14.4291 10.3701C14.9967 8.99968 15.1453 7.49168 14.8559 6.03683C14.5665 4.58197 13.8522 3.2456 12.8033 2.1967C11.7544 1.14781 10.418 0.433503 8.96317 0.144114C7.50832 -0.145275 6.00032 0.00324963 4.62987 0.570907C3.25943 1.13856 2.08809 2.09986 1.26398 3.33323C0.439867 4.56659 0 6.01664 0 7.5C0.00221143 9.48845 0.793098 11.3948 2.19914 12.8009C3.60518 14.2069 5.51155 14.9978 7.5 15V15ZM3.96975 6.96975C4.03937 6.90009 4.12204 6.84483 4.21302 6.80713C4.30401 6.76943 4.40153 6.75003 4.50002 6.75003C4.59851 6.75003 4.69603 6.76943 4.78702 6.80713C4.878 6.84483 4.96067 6.90009 5.03029 6.96975L6.75 8.68946V4.5C6.75 4.30109 6.82902 4.11032 6.96967 3.96967C7.11032 3.82902 7.30109 3.75 7.5 3.75C7.69891 3.75 7.88968 3.82902 8.03033 3.96967C8.17098 4.11032 8.25 4.30109 8.25 4.5V8.68946L9.96975 6.96971C10.1107 6.83054 10.301 6.75278 10.499 6.7534C10.6971 6.75403 10.8869 6.83299 11.0269 6.97306C11.167 7.11312 11.246 7.3029 11.2466 7.50097C11.2472 7.69904 11.1694 7.88932 11.0302 8.03025L8.03048 11.03C7.88947 11.1701 7.69876 11.2488 7.49998 11.2488C7.30119 11.2488 7.11048 11.1701 6.96947 11.03L3.96975 8.03025C3.9001 7.96063 3.84484 7.87797 3.80714 7.78699C3.76944 7.696 3.75004 7.59849 3.75004 7.5C3.75004 7.40152 3.76944 7.304 3.80714 7.21302C3.84484 7.12204 3.9001 7.03937 3.96975 6.96975V6.96975Z" fill="black" />
</svg>
