<svg width="15" height="15" viewBox="0 0 15 15" fill="none" xmlns="http://www.w3.org/2000/svg">
	<path d="M0 7.5C0 8.98336 0.439867 10.4334 1.26398 11.6668C2.08809 12.9001 3.25943 13.8614 4.62987 14.4291C6.00032 14.9967 7.50832 15.1453 8.96317 14.8559C10.418 14.5665 11.7544 13.8522 12.8033 12.8033C13.8522 11.7544 14.5665 10.418 14.8559 8.96317C15.1453 7.50832 14.9967 6.00032 14.4291 4.62987C13.8614 3.25943 12.9001 2.08809 11.6668 1.26398C10.4334 0.439867 8.98336 0 7.5 0C5.51155 0.00221143 3.60518 0.793098 2.19914 2.19914C0.793098 3.60518 0.00221143 5.51155 0 7.5V7.5ZM8.03025 3.96975C8.09991 4.03937 8.15517 4.12204 8.19287 4.21302C8.23057 4.30401 8.24997 4.40153 8.24997 4.50002C8.24997 4.59851 8.23057 4.69603 8.19287 4.78702C8.15517 4.878 8.09991 4.96067 8.03025 5.03029L6.31054 6.75H10.5C10.6989 6.75 10.8897 6.82902 11.0303 6.96967C11.171 7.11032 11.25 7.30109 11.25 7.5C11.25 7.69891 11.171 7.88968 11.0303 8.03033C10.8897 8.17098 10.6989 8.25 10.5 8.25H6.31054L8.03029 9.96975C8.16946 10.1107 8.24722 10.301 8.2466 10.499C8.24597 10.6971 8.16701 10.8869 8.02694 11.0269C7.88688 11.167 7.6971 11.246 7.49903 11.2466C7.30096 11.2472 7.11068 11.1694 6.96975 11.0302L3.96997 8.03048C3.82986 7.88947 3.75122 7.69876 3.75122 7.49998C3.75122 7.30119 3.82986 7.11048 3.96997 6.96947L6.96975 3.96975C7.03937 3.9001 7.12203 3.84484 7.21301 3.80714C7.304 3.76944 7.40151 3.75004 7.5 3.75004C7.59848 3.75004 7.696 3.76944 7.78698 3.80714C7.87796 3.84484 7.96063 3.9001 8.03025 3.96975V3.96975Z" fill="black" />
</svg>
