<svg width="15" height="15" viewBox="0 0 15 15" fill="none" xmlns="http://www.w3.org/2000/svg">
	<path d="M15 7.5C15 6.01664 14.5601 4.56659 13.736 3.33323C12.9119 2.09986 11.7406 1.13856 10.3701 0.570907C8.99968 0.00324963 7.49168 -0.145275 6.03683 0.144114C4.58197 0.433503 3.2456 1.14781 2.1967 2.1967C1.14781 3.2456 0.433503 4.58197 0.144114 6.03683C-0.145275 7.49168 0.00324963 8.99968 0.570907 10.3701C1.13856 11.7406 2.09986 12.9119 3.33323 13.736C4.56659 14.5601 6.01664 15 7.5 15C9.48845 14.9978 11.3948 14.2069 12.8009 12.8009C14.2069 11.3948 14.9978 9.48845 15 7.5V7.5ZM6.96975 11.0303C6.90009 10.9606 6.84483 10.878 6.80713 10.787C6.76943 10.696 6.75003 10.5985 6.75003 10.5C6.75003 10.4015 6.76943 10.304 6.80713 10.213C6.84483 10.122 6.90009 10.0393 6.96975 9.96971L8.68946 8.25H4.5C4.30109 8.25 4.11032 8.17098 3.96967 8.03033C3.82902 7.88968 3.75 7.69891 3.75 7.5C3.75 7.30109 3.82902 7.11032 3.96967 6.96967C4.11032 6.82902 4.30109 6.75 4.5 6.75H8.68946L6.96975 5.03025C6.83122 4.88919 6.754 4.69912 6.7549 4.50141C6.75579 4.3037 6.83473 4.11434 6.97453 3.97453C7.11434 3.83473 7.3037 3.75579 7.50141 3.7549C7.69912 3.754 7.88919 3.83122 8.03025 3.96975L11.03 6.96952C11.1701 7.11053 11.2488 7.30124 11.2488 7.50002C11.2488 7.69881 11.1701 7.88952 11.03 8.03053L8.03025 11.0303C7.96063 11.0999 7.87797 11.1552 7.78699 11.1929C7.696 11.2306 7.59849 11.25 7.5 11.25C7.40152 11.25 7.304 11.2306 7.21302 11.1929C7.12204 11.1552 7.03937 11.0999 6.96975 11.0303Z" fill="black" />
</svg>
