<svg width="15" height="15" viewBox="0 0 15 15" fill="none" xmlns="http://www.w3.org/2000/svg">
	<path d="M7.5 0C6.01664 0 4.56659 0.439867 3.33323 1.26398C2.09986 2.08809 1.13856 3.25943 0.570907 4.62987C0.00324963 6.00032 -0.145275 7.50832 0.144114 8.96317C0.433503 10.418 1.14781 11.7544 2.1967 12.8033C3.2456 13.8522 4.58197 14.5665 6.03683 14.8559C7.49168 15.1453 8.99968 14.9967 10.3701 14.4291C11.7406 13.8614 12.9119 12.9001 13.736 11.6668C14.5601 10.4334 15 8.98336 15 7.5C14.9978 5.51155 14.2069 3.60518 12.8009 2.19914C11.3948 0.793098 9.48845 0.00221143 7.5 0V0ZM11.0303 8.03025C10.9606 8.09991 10.878 8.15517 10.787 8.19287C10.696 8.23057 10.5985 8.24997 10.5 8.24997C10.4015 8.24997 10.304 8.23057 10.213 8.19287C10.122 8.15517 10.0393 8.09991 9.96971 8.03025L8.25 6.31054V10.5C8.25 10.6989 8.17098 10.8897 8.03033 11.0303C7.88968 11.171 7.69891 11.25 7.5 11.25C7.30109 11.25 7.11032 11.171 6.96967 11.0303C6.82902 10.8897 6.75 10.6989 6.75 10.5V6.31054L5.03025 8.03025C4.88919 8.16878 4.69912 8.246 4.50141 8.2451C4.3037 8.24421 4.11434 8.16527 3.97453 8.02547C3.83473 7.88566 3.75579 7.6963 3.7549 7.49859C3.754 7.30088 3.83122 7.11081 3.96975 6.96975L6.96952 3.96997C7.11053 3.82986 7.30124 3.75122 7.50002 3.75122C7.69881 3.75122 7.88952 3.82986 8.03053 3.96997L11.0303 6.96975C11.0999 7.03937 11.1552 7.12203 11.1929 7.21301C11.2306 7.304 11.25 7.40151 11.25 7.5C11.25 7.59848 11.2306 7.696 11.1929 7.78698C11.1552 7.87796 11.0999 7.96063 11.0303 8.03025V8.03025Z" fill="black" />
</svg>
